<?xml version="1.0" encoding="utf-8"?>
<!-- Generator: Adobe Illustrator 21.1.0, SVG Export Plug-In . SVG Version: 6.00 Build 0)  -->
<svg version="1.1" id="Layer_1" xmlns="http://www.w3.org/2000/svg" xmlns:xlink="http://www.w3.org/1999/xlink" x="0px" y="0px"
	 viewBox="0 0 16 16" style="enable-background:new 0 0 16 16;" xml:space="preserve">
<style type="text/css">
	.st0{fill:#020203;}
	.st1{fill:#D8001A;}
	.st2{fill:#CCCCCC;}
</style>
<rect class="st0" width="16" height="16"/>
<g>
	<path class="st1" d="M4.8,8.4V3.8C5.3,3.6,6,3.3,6.4,3.3s0.5,0.2,0.5,0.5V8L9,7.8v-4c0.5-0.2,1.2-0.5,1.6-0.5
		c0.4,0,0.5,0.2,0.5,0.5v3.6l2.1-0.2V3.6c0-1.4-0.5-2.4-1.7-2.4c-1,0-2.1,0.2-3,0.7c0-0.5-0.5-0.7-1.1-0.7c-0.9,0-2,0.2-3,0.7
		L4.3,1.3H2.7v7.3l0,0L4.8,8.4z"/>
</g>
<g>
	<polygon class="st2" points="9.1,12.1 9.1,15.1 6.9,15.4 6.9,8.7 9.1,8.4 9.1,10.3 	"/>
</g>
<g>
	<path class="st2" d="M9,12.1c0.5,0.1,1.2,0.2,1.9,0.2c1.7,0,2.5-1,2.5-2.7V7.8L11.3,8v1.5c0,0.5-0.2,0.9-0.7,0.9s-1.1,0-1.5-0.1
		L9,12.1L9,12.1z"/>
</g>
</svg>
