<?xml version="1.0" encoding="utf-8"?>
<!-- Generator: Adobe Illustrator 21.1.0, SVG Export Plug-In . SVG Version: 6.00 Build 0)  -->
<svg version="1.1" id="Layer_1" xmlns="http://www.w3.org/2000/svg" xmlns:xlink="http://www.w3.org/1999/xlink" x="0px" y="0px"
	 viewBox="0 0 192 192" style="enable-background:new 0 0 192 192;" xml:space="preserve">
<style type="text/css">
	.st0{fill:#020203;}
	.st1{fill:#B11C22;}
	.st2{fill:#AFAFAF;}
</style>
<rect y="0" class="st0" width="192" height="192"/>
<g>
	<path class="st1" d="M65.1,100.8V57c4.5-2.5,11.5-5.1,15.3-5.1c3.6,0,5.1,1.9,5.1,5.1v40.9l21-3V57c4.5-2.5,11.5-5.1,15.3-5.1
		c3.6,0,5.1,1.9,5.1,5.1v35l21-3V54.2c0-13.7-4.2-22.7-16.3-22.7c-9.7,0-20.4,2.9-28.4,6.8c-2.5-4.4-6.7-6.8-13-6.8
		c-8.1,0-19.5,2.6-28.2,6.8L59.7,33H44.1v70.9l0,0L65.1,100.8z"/>
</g>
<g>
	<polygon class="st2" points="106.5,136.4 106.5,165.7 85.5,168.6 85.5,103.8 106.5,100.8 106.5,118.5 	"/>
</g>
<g>
	<path class="st2" d="M105.8,136.6c4.8,1.2,12.2,2,18,2c16.6,0,23.9-9.5,23.9-26.2V94.9l-21,3v14.5c0,4.7-2,8-7.6,8
		c-4.4,0-9.7-0.9-13.4-1.7v17.9H105.8z"/>
</g>
</svg>
