<?xml version="1.0" encoding="utf-8"?>
<!-- Generator: Adobe Illustrator 21.1.0, SVG Export Plug-In . SVG Version: 6.00 Build 0)  -->
<svg version="1.1" id="Layer_1" xmlns="http://www.w3.org/2000/svg" xmlns:xlink="http://www.w3.org/1999/xlink" x="0px" y="0px"
	 viewBox="0 0 22 22" style="enable-background:new 0 0 22 22;" xml:space="preserve">
<style type="text/css">
	.st0{fill:#020203;}
	.st1{fill:#D8001A;}
	.st2{fill:#CCCCCC;}
</style>
<rect class="st0" width="22" height="22"/>
<g>
	<path class="st1" d="M6.6,11.6V5.3C7.3,5,8.3,4.6,8.8,4.6s0.7,0.3,0.7,0.7v5.8l2.9-0.3V5.3c0.7-0.3,1.7-0.7,2.2-0.7
		s0.7,0.3,0.7,0.7v4.9l2.9-0.3v-5c0-1.9-0.7-3.2-2.4-3.2c-1.4,0-2.9,0.3-4.1,1c0-0.7-0.7-1-1.5-1C9,1.7,7.4,2,6.1,2.7L5.9,1.9H3.7
		V12l0,0L6.6,11.6z"/>
</g>
<g>
	<polygon class="st2" points="12.5,16.7 12.5,20.8 9.5,21.1 9.5,11.9 12.5,11.6 12.5,14.1 	"/>
</g>
<g>
	<path class="st2" d="M12.4,16.7c0.7,0.2,1.7,0.3,2.6,0.3c2.4,0,3.4-1.4,3.4-3.8v-2.6l-2.9,0.3v2c0,0.7-0.3,1.2-1,1.2s-1.5,0-2-0.2
		v2.8H12.4z"/>
</g>
</svg>
