<?xml version="1.0" encoding="utf-8"?>
<!-- Generator: Adobe Illustrator 21.1.0, SVG Export Plug-In . SVG Version: 6.00 Build 0)  -->
<svg version="1.1" id="Layer_1" xmlns="http://www.w3.org/2000/svg" xmlns:xlink="http://www.w3.org/1999/xlink" x="0px" y="0px"
	 viewBox="0 0 32 32" style="enable-background:new 0 0 32 32;" xml:space="preserve">
<style type="text/css">
	.st0{fill:#020203;}
	.st1{fill:#D8001A;}
	.st2{fill:#CCCCCC;}
</style>
<rect x="0.1" class="st0" width="31.9" height="32"/>
<g>
	<path class="st1" d="M9.6,16.9V7.7c1-0.5,2.5-1,3.2-1s1,0.5,1,1v8.4l4.2-0.5V7.7c1-0.5,2.5-1,3.2-1s1,0.5,1,1v7.2l4.2-0.5V7.2
		c0-2.7-1-4.7-3.5-4.7C21,2.5,18.7,3,17,4c0-1-1-1.5-2.2-1.5c-1.8,0-4,0.5-6,1.5L8.6,2.8H5.4v14.6l0,0L9.6,16.9z"/>
</g>
<g>
	<polygon class="st2" points="18.2,24.3 18.2,30.3 13.8,30.7 13.8,17.4 18.2,16.9 18.2,20.6 	"/>
</g>
<g>
	<path class="st2" d="M18,24.3c1,0.2,2.5,0.5,3.7,0.5c3.5,0,5-2,5-5.4v-3.7l-4.2,0.5v3c0,1-0.5,1.7-1.5,1.7s-2.2,0-3-0.2V24.3z"/>
</g>
</svg>
