<?xml version="1.0" encoding="utf-8"?>
<!-- Generator: Adobe Illustrator 21.1.0, SVG Export Plug-In . SVG Version: 6.00 Build 0)  -->
<svg version="1.1" id="Layer_1" xmlns="http://www.w3.org/2000/svg" xmlns:xlink="http://www.w3.org/1999/xlink" x="0px" y="0px"
	 viewBox="0 0 40 40" style="enable-background:new 0 0 40 40;" xml:space="preserve">
<style type="text/css">
	.st0{fill:#020203;}
	.st1{fill:#B11C22;}
	.st2{fill:#AFAFAF;}
</style>
<rect y="0" class="st0" width="40" height="40"/>
<g>
	<path class="st1" d="M13.6,21v-9.1c0.9-0.5,2.4-1.1,3.2-1.1c0.8,0,1.1,0.4,1.1,1.1v8.5l4.4-0.6v-7.9c0.9-0.5,2.4-1.1,3.2-1.1
		c0.8,0,1.1,0.4,1.1,1.1v7.3l4.4-0.6v-7.2c0-2.8-0.9-4.7-3.4-4.7c-2,0-4.2,0.6-5.9,1.4c-0.5-0.9-1.4-1.4-2.7-1.4
		c-1.7,0-4.1,0.5-5.9,1.4L12.6,7H9.2v14.8l0,0L13.6,21z"/>
</g>
<g>
	<polygon class="st2" points="22.2,28.4 22.2,34.5 17.8,35.1 17.8,21.6 22.2,21 22.2,24.7 	"/>
</g>
<g>
	<path class="st2" d="M22,28.5c1,0.2,2.5,0.4,3.8,0.4c3.5,0,5-2,5-5.5v-3.6l-4.4,0.6v3c0,1-0.4,1.7-1.6,1.7c-0.9,0-2-0.2-2.8-0.4
		V28.5z"/>
</g>
</svg>
