<?xml version="1.0" encoding="utf-8"?>
<!-- Generator: Adobe Illustrator 21.1.0, SVG Export Plug-In . SVG Version: 6.00 Build 0)  -->
<svg version="1.1" id="Layer_1" xmlns="http://www.w3.org/2000/svg" xmlns:xlink="http://www.w3.org/1999/xlink" x="0px" y="0px"
	 viewBox="0 0 96 96" style="enable-background:new 0 0 96 96;" xml:space="preserve">
<style type="text/css">
	.st0{fill:#020203;}
	.st1{fill:#B11C22;}
	.st2{fill:#AFAFAF;}
</style>
<rect y="0" class="st0" width="95.9" height="95.9"/>
<g>
	<path class="st1" d="M32.5,50.4V28.5c2.3-1.2,5.7-2.5,7.6-2.5c1.8,0,2.5,0.9,2.5,2.5V49l10.5-1.5v-19c2.3-1.2,5.7-2.5,7.6-2.5
		c1.8,0,2.5,0.9,2.5,2.5V46l10.5-1.5V27.1c0-6.8-2.1-11.3-8.1-11.3c-4.9,0-10.2,1.5-14.2,3.4c-1.2-2.2-3.3-3.4-6.5-3.4
		c-4.1,0-9.7,1.3-14.1,3.4l-1.1-2.7h-7.8v35.4l0,0L32.5,50.4z"/>
</g>
<g>
	<polygon class="st2" points="53.2,68.2 53.2,82.8 42.8,84.3 42.8,51.9 53.2,50.4 53.2,59.3 	"/>
</g>
<g>
	<path class="st2" d="M52.9,68.3c2.4,0.6,6.1,1,9,1c8.3,0,11.9-4.7,11.9-13.1v-8.7L63.4,49v7.2c0,2.3-1,4-3.8,4
		c-2.2,0-4.9-0.4-6.7-0.9V68.3z"/>
</g>
</svg>
