<?xml version="1.0" encoding="utf-8"?>
<!-- Generator: Adobe Illustrator 21.1.0, SVG Export Plug-In . SVG Version: 6.00 Build 0)  -->
<svg version="1.1" id="Layer_1" xmlns="http://www.w3.org/2000/svg" xmlns:xlink="http://www.w3.org/1999/xlink" x="0px" y="0px"
	 viewBox="0 0 2560 1080" style="enable-background:new 0 0 2560 1080;" xml:space="preserve">
<style type="text/css">
	.st0{fill:#232323;}
	.st1{opacity:0.7;fill:#232323;enable-background:new    ;}
	.st2{fill:#B21A20;}
	.st3{fill:#AFAFAF;}
	.st4{fill:#B11C22;}
</style>
<rect x="-55.3" y="-22.1" class="st0" width="2669.4" height="1124.7"/>
<image style="overflow:visible;enable-background:new    ;" width="2575" height="792" xlink:href="OpenMPT About Screen Waveform.png"  transform="matrix(0.9994 0 0 0.5704 -2.4364 354.1657)">
</image>
<rect x="-43.3" y="-24.2" class="st1" width="2649.3" height="1128.1"/>
<g>
	<g>
		<rect x="857.7" y="346" class="st2" width="44.6" height="347.4"/>
		<path class="st0" d="M896.8,351.5v336.4h-33.6v-0.1V351.5H896.8 M907.8,340.5h-11h-33.6h-11v11v336.3v0.1v11h11h33.6h11v-11V351.5
			V340.5L907.8,340.5z"/>
	</g>
</g>
<g>
	<g>
		<g>
			<path class="st3" d="M1096.8,626.1c-30.7,0-54.5-7.7-70.9-23c-13.8-12.9-21.4-31.1-21.4-51.1v-93.5c0-20,7.6-38.2,21.4-51.1
				c16.3-15.3,40.2-23,70.9-23c30.7,0,54.5,7.7,70.9,23c13.8,12.9,21.4,31.1,21.4,51.1V552c0,20-7.6,38.2-21.4,51.1
				C1151.4,618.3,1127.5,626.1,1096.8,626.1z M1096.8,440c-30.8,0-30.8,17.2-30.8,22.8v84.8c0,5.6,0,22.8,30.8,22.8
				s30.8-17.2,30.8-22.8v-84.8C1127.6,457.2,1127.6,440,1096.8,440z"/>
			<path class="st0" d="M1096.8,389.9c63.2,0,86.8,34.6,86.8,68.6V552c0,34-23.5,68.6-86.8,68.6c-63.2,0-86.8-34.6-86.8-68.6v-93.5
				C1010,424.5,1033.5,389.9,1096.8,389.9 M1096.8,575.9c25.2,0,36.3-10.8,36.3-28.3v-84.8c0-17.5-11.1-28.3-36.3-28.3
				c-25.2,0-36.3,10.8-36.3,28.3v84.8C1060.5,565.1,1071.6,575.9,1096.8,575.9 M1096.8,378.9c-32.1,0-57.3,8.2-74.7,24.5
				c-14.9,14-23.1,33.5-23.1,55.1V552c0,21.5,8.2,41.1,23.2,55.1c17.4,16.3,42.5,24.5,74.6,24.5s57.3-8.2,74.7-24.5
				c14.9-14,23.1-33.5,23.1-55.1v-93.5c0-21.5-8.2-41.1-23.2-55.1C1154,387.1,1128.9,378.9,1096.8,378.9L1096.8,378.9z
				 M1096.8,564.9c-25.3,0-25.3-11.7-25.3-17.3v-84.8c0-5.6,0-17.3,25.3-17.3s25.3,11.7,25.3,17.3v84.8
				C1122.1,553.2,1122.1,564.9,1096.8,564.9L1096.8,564.9z"/>
		</g>
	</g>
	<g>
		<g>
			<path class="st3" d="M1207,447.9h47.3l4,10.5c13.1-7.2,31.9-13.9,47.7-13.9c37,0,57.3,23.4,57.3,66V560
				c0,21.1-4.9,37.3-14.6,48.4c-10.2,11.7-25.8,17.6-46.1,17.6c-11.1,0-25.1-1.3-36.2-3.4v65.6l-59.4,8.2L1207,447.9L1207,447.9z
				 M1266.4,570.1c7.4,1.5,17.2,2.9,25.4,2.9c8.5,0,12-3.8,12-13v-49.4c0-9.5-3.3-13-12-13c-8.4,0-18.7,4.8-25.4,9.9V570.1z"/>
			<path class="st0" d="M1306,450c33.3,0,51.8,20.5,51.8,60.5V560l0,0c0,38.7-16.8,60.5-55.2,60.5c-13.5,0-30.6-2-41.7-4.7v67.6
				l-48.4,6.7V453.4h38l5,13.1C1266.9,459.1,1288.1,450,1306,450 M1291.8,578.5c12.8,0,17.5-7.7,17.5-18.5v-49.4
				c0-11.4-4.7-18.5-17.5-18.5c-11.1,0-23.9,6.7-30.9,12.8v69.6C1269.3,576.5,1281.8,578.5,1291.8,578.5 M1306,439
				c-16,0-32.7,5.9-44.7,11.7l-0.5-1.3l-2.7-7.1h-7.6h-38h-11v11V690v12.6l12.5-1.7l48.4-6.7l9.5-1.3v-9.6V629
				c10,1.5,21.2,2.4,30.7,2.4c22,0,39-6.6,50.3-19.5c10.6-12.1,15.9-29.6,15.9-52v-49.5c0-22.5-5.4-40.1-16.1-52.5
				C1341.7,445.4,1326,439,1306,439L1306,439z M1271.9,510.3c5.8-3.9,13.8-7.2,19.9-7.2c2.6,0,4.6,0.5,5.2,1.2s1.3,2.7,1.3,6.3V560
				c0,4.3-1,5.8-1.3,6.2c-1,1.2-3.9,1.3-5.2,1.3c-6.3,0-13.6-0.9-19.9-2V510.3L1271.9,510.3z"/>
		</g>
	</g>
	<g>
		<g>
			<path class="st3" d="M1458.1,626c-26.9,0-47.2-6.6-60.4-19.7c-12.2-12.1-18.4-29.7-18.4-52.4v-38.3c0-46.5,26.2-71.1,75.8-71.1
				c48.3,0,71.8,24,71.8,73.4v39.8h-88.2c0.1,9.4,2.4,12.4,4.4,14c3.3,2.6,9.4,3.7,19.7,3.7c15.3,0,34.7-2.8,48.2-6.9l5.8-1.8
				l9.2,46.9l-4.4,1.6C1508,620.2,1483.2,626,1458.1,626z M1470,510.5v-1.6c0-10-2.3-15.4-14.7-15.4c-11.5,0-16.7,4.7-16.7,15.4v1.6
				H1470z"/>
			<path class="st0" d="M1455.1,450c54.5,0,66.3,32.3,66.3,67.9v34.3h-88.2v0.1v4.7c0,18.8,7.4,23.9,29.6,23.9
				c15.1,0,35.3-2.7,49.8-7.1l7.1,36.3c-14.8,5.4-38.7,10.4-61.6,10.4c-53.1,0-73.3-26.2-73.3-66.6v-38.3
				C1384.8,480.3,1400.6,450,1455.1,450 M1433.1,516h42.4v-7.1l0,0c0-11.4-3.4-20.9-20.2-20.9c-16.8,0-22.2,9.4-22.2,20.9
				L1433.1,516 M1455.1,439c-28.5,0-49.9,7.8-63.8,23.2c-11.6,13-17.5,30.9-17.5,53.4v38.3c0,24.2,6.7,43.1,20,56.3
				c14.3,14.2,35.9,21.3,64.3,21.3c25.9,0,51.4-6,65.4-11.1l8.8-3.2l-1.8-9.2l-7.1-36.3l-1.7-8.5h10.7v-11v-34.3
				c0-23.4-4.9-41.1-15-54.1C1504.5,447.4,1483.6,439,1455.1,439L1455.1,439z M1444.5,505c0.3-1.3,0.8-2.6,1.6-3.5
				c2-2.2,6.7-2.5,9.3-2.5c4,0,6.8,0.7,7.7,1.9c0.4,0.5,1,1.6,1.3,4.1H1444.5L1444.5,505z M1444.6,563.2h65l-0.2,0.1
				c-12.9,3.9-32,6.6-46.6,6.6c-10.8,0-14.9-1.4-16.3-2.6C1445.5,566.6,1445,565.1,1444.6,563.2L1444.6,563.2z"/>
		</g>
	</g>
	<g>
		<g>
			<path class="st3" d="M1640.9,622.7V508.9c0-4.9-1.4-6.3-6.3-6.3c-6.7,0-20.1,4.7-29.8,9.6v110.5h-59.4V447.9h45.2l4.2,10.5
				c19.4-8.4,43.8-13.9,62.4-13.9c28.7,0,43.2,19.5,43.2,58v120.2H1640.9z"/>
			<path class="st0" d="M1657.2,450c27.9,0,37.7,20.9,37.7,52.5v114.7h-48.5V508.9c0-7.4-3.4-11.8-11.8-11.8
				c-8.7,0-24.9,6.1-35.3,11.8v108.3h-48.4V453.4h36l5,12.4C1612.1,456,1638.3,450,1657.2,450 M1657.2,439
				c-17.9,0-40.2,4.7-59.3,12.2l-0.8-1.9l-2.8-6.9h-7.4h-36h-11v11v163.8v11h11h48.4h11v-11V515.7c9.2-4.3,19.5-7.6,24.3-7.6
				c0.3,0,0.6,0,0.8,0c0,0.2,0,0.5,0,0.8v108.3v11h11h48.5h11v-11V502.5c0-19.1-3.3-33.5-10.2-44.1
				C1690,449.6,1678.7,439,1657.2,439L1657.2,439z"/>
		</g>
	</g>
	<g>
		<g>
			<polygon class="st3" points="1897.6,622.8 1894.8,519.1 1864.3,593.8 1811.8,593.8 1781.4,519.1 1778.6,622.8 1718.7,622.8 
				1728.5,387.8 1788.1,387.8 1838.1,520.3 1888.1,387.8 1947.7,387.8 1957.5,622.8 			"/>
			<path class="st0" d="M1942.4,393.3l9.4,224H1903l-3.4-124.5l-39,95.5h-45.1l-38.9-95.5l-3.4,124.5h-48.8l9.4-224h50.5l53.8,142.6
				l53.8-142.6L1942.4,393.3 M1952.9,382.3h-10.5h-50.5h-7.6l-2.7,7.1l-43.5,115.3l-43.5-115.3l-2.7-7.1h-7.6h-50.5h-10.5l-0.4,10.5
				l-9.4,224l-0.5,11.5h11.5h48.8h10.7l0.3-10.7l2-72.2l19.1,47l2.8,6.9h7.4h45.1h7.4l2.8-6.8l19.2-47.1l2,72.3l0.3,10.7h10.7h48.8
				h11.5l-0.5-11.5l-9.4-224L1952.9,382.3L1952.9,382.3z"/>
		</g>
	</g>
	<g>
		<g>
			<path class="st3" d="M1975.6,622.7v-235h97c28.3,0,48.4,5.7,61.5,17.4c12.6,11.3,18.7,28.2,18.7,51.7V486
				c0,23.3-6.6,40.2-20.2,51.6c-13.7,11.5-34.2,17.2-62.7,17.2h-32.8v67.9H1975.6z M2069.9,500.1c19.3,0,21.4-6.1,21.4-19.1v-19.5
				c0-12.7-3-18-21.4-18h-32.8v56.6H2069.9z"/>
			<path class="st0" d="M2072.6,393.2c54.5,0,74.7,21.5,74.7,63.6V486c0,42.1-22.9,63.3-77.4,63.3h-38.3v67.9h-50.5v-224H2072.6
				 M2031.6,505.6h38.3c22.2,0,26.9-8.4,26.9-24.6v-19.5c0-16.1-5.7-23.5-26.9-23.5h-38.3L2031.6,505.6 M2072.6,382.2h-91.5h-11v11
				v224v11h11h50.5h11v-11v-56.9h27.3c29.8,0,51.5-6,66.2-18.4s22.2-31.2,22.2-55.9v-29.2c0-25.1-6.7-43.4-20.6-55.8
				C2123.6,388.4,2102.3,382.2,2072.6,382.2L2072.6,382.2z M2042.6,449h27.3c9.9,0,13,1.9,13.8,2.7c1.7,1.6,2.1,6.2,2.1,9.8V481
				c0,5.7-0.7,9.3-2.1,10.8c-0.8,0.9-3.8,2.8-13.8,2.8h-27.3L2042.6,449L2042.6,449z"/>
		</g>
	</g>
	<g>
		<g>
			<polygon class="st3" points="2222.8,622.7 2222.8,443.4 2162.6,443.4 2162.6,387.7 2344.5,387.7 2344.5,443.4 2284.3,443.4 
				2284.3,622.7 			"/>
			<path class="st0" d="M2339,393.2v44.7h-60.2v179.3h-50.5V437.9h-60.2v-44.7L2339,393.2 M2350,382.2h-11h-170.9h-11v11v44.7v11h11
				h49.2v168.3v11h11h50.5h11v-11V448.9h49.2h11v-11v-44.7V382.2L2350,382.2z"/>
		</g>
	</g>
</g>
<g>
	<g>
		<path class="st4" d="M220.8,617.2V247.7h88l10.2,25.2c42.8-19.6,98.2-32.6,139.9-32.6c30.6,0,53.3,11.1,67.6,33
			c43.8-20.7,96.3-33,141.4-33c31,0,54.2,11.4,68.7,34c12.9,20,19.2,48.2,19.2,86.3v180.8l-117,16.8V374.6
			c0-14.2-6.1-20.3-20.3-20.3c-17.1,0-49.7,12-71.8,23.6v193.5l-117,16.8V374.7c0-14.2-6.1-20.3-20.3-20.3
			c-17.1,0-49.7,12-71.8,23.6v223.4l-110.8,15.8H220.8z"/>
		<path class="st0" d="M458.9,245.8c31.6,0,53,12.5,65.5,34.6c40.4-19.9,94.2-34.6,143.5-34.6c61.1,0,82.4,45.6,82.4,114.8v176
			l-106,15.2V374.6c0-16.2-7.4-25.8-25.8-25.8c-19.1,0-54.5,13.3-77.3,25.8v192l-106,15.2V374.7c0-16.2-7.4-25.8-25.8-25.8
			c-19.1,0-54.5,13.3-77.3,25.8v221.9l-105.7,15.1h-0.1V253.2h78.8l11,27.2C360.3,259,417.7,245.8,458.9,245.8 M458.9,234.8
			c-40.7,0-94.3,12.2-136.9,30.8l-6.7-16.5l-2.8-6.9h-7.4h-78.8h-11v11v358.5v11h11h0.1h0.8l0.8-0.1l105.7-15.1l9.4-1.3v-9.5V381.3
			c21.3-10.8,50.8-21.4,66.3-21.4c11.2,0,14.8,3.6,14.8,14.8v207.1v12.7l12.6-1.8l106-15.2l9.4-1.4v-9.5V381.2
			c21.3-10.8,50.8-21.4,66.3-21.4c11.2,0,14.8,3.6,14.8,14.8v177.2v12.7l12.6-1.8l106-15.2l9.4-1.4v-9.5v-176
			c0-39.2-6.6-68.5-20-89.3c-15.6-24.2-40.3-36.5-73.4-36.5c-44.4,0-95.9,11.7-139.5,31.5c-6.6-8.9-14.8-16-24.3-21.2
			C491.4,238.3,476.2,234.8,458.9,234.8L458.9,234.8z"/>
	</g>
</g>
<g>
	<path class="st3" d="M430,606.8L547,590v93.3c16.5,3.5,39.5,7,58.9,7c22.1,0,32.8-11.4,32.8-35v-78.2l117-16.8v94.8
		c0,91.6-42.5,138-126.2,138c-25.5,0-57.7-3.2-82.5-8.2v144.5l-117,16.2V606.8z"/>
	<path class="st0" d="M750.2,566.8v88.5c0,84.7-36.8,132.5-120.7,132.5c-28.2,0-63.7-4-88-9.5v146.5l-106,14.7V611.6l106-15.2v89.8
		v1.6c18.2,4.2,43.6,8.1,64.4,8.1c28,0,38.3-16.9,38.3-40.5V582L750.2,566.8 M761.2,554.1l-12.6,1.8l-106,15.2l-9.4,1.4v9.5v73.4
		c0,9.9-2,17.3-6,22c-4.3,5.1-11.2,7.5-21.3,7.5c-17.3,0-37.6-2.8-53.4-6v-82.5v-12.7l-12.6,1.8l-106,15.2l-9.4,1.4v9.5v327.9v12.6
		l12.5-1.7l106-14.7l9.5-1.3v-9.6V791.7c24.1,4.3,53.4,7.1,77,7.1c44.2,0,77.9-12.9,100.1-38.3c10.8-12.3,18.9-27.7,24.1-45.7
		c5-17.1,7.5-37.1,7.5-59.5v-88.5L761.2,554.1L761.2,554.1z"/>
</g>
</svg>
